<svg id="Layer_1" data-name="Layer 1" xmlns="http://www.w3.org/2000/svg" viewBox="0 0 655 463"><defs><style>.cls-1{fill:#0095db;}</style></defs><title>icon2</title><path class="cls-1" d="M549.7,175.1A111.77,111.77,0,0,0,415.6,73.3a176,176,0,0,0-309.9,73.5A160,160,0,0,0,166,455H502a144,144,0,0,0,47.7-279.9ZM502,407H166a112,112,0,0,1-16-222.9V183a128,128,0,0,1,246.4-48.6,64,64,0,0,1,96.8,81,86.11,86.11,0,0,1,8.8-.4,96,96,0,0,1,0,192Z"/><rect class="cls-1" x="180.76" y="189.5" width="236.28" height="45" rx="11"/><rect class="cls-1" x="272.35" y="260.92" width="144.69" height="45" rx="11"/><rect class="cls-1" x="147.88" y="332.34" width="194.85" height="45" rx="11"/><rect class="cls-1" x="147.88" y="260.92" width="112.62" height="45" rx="11"/><rect class="cls-1" x="366.34" y="332.34" width="50.7" height="45" rx="11"/></svg>